<svg width="200" height="79" viewBox="0 0 200 79" fill="none" xmlns="http://www.w3.org/2000/svg">
<g clip-path="url(#clip0_3_2)">
<path d="M24.6073 41.7539L30.3665 25.5236L30.8901 25.3927H31.4136L31.8063 25.5236L41.8848 54.1885L41.7539 55.3665L41.0995 56.4136L39.9215 57.4607H30.3665C29.6335 57.4607 28.7521 56.3264 28.4031 55.7592L24.6073 44.6335L24.4764 43.1937L24.6073 41.7539Z" fill="black"/>
<path d="M0.26178 54.5811L12.6963 18.9791L14.1361 17.0157L15.445 16.0995L17.5393 15.445H25.5236L26.0471 15.9686L26.9634 17.2775V18.9791L13.8743 55.8901L12.8272 56.9372L11.5183 57.5916H2.35602L0.91623 56.5445L0.26178 54.5811Z" fill="black"/>
<path d="M24.6073 41.7539L30.3665 25.5236L30.8901 25.3927H31.4136L31.8063 25.5236L41.8848 54.1885L41.7539 55.3665L41.0995 56.4136L39.9215 57.4607H30.3665C29.6335 57.4607 28.7521 56.3264 28.4031 55.7592L24.6073 44.6335L24.4764 43.1937L24.6073 41.7539Z" stroke="black"/>
<path d="M0.26178 54.5811L12.6963 18.9791L14.1361 17.0157L15.445 16.0995L17.5393 15.445H25.5236L26.0471 15.9686L26.9634 17.2775V18.9791L13.8743 55.8901L12.8272 56.9372L11.5183 57.5916H2.35602L0.91623 56.5445L0.26178 54.5811Z" stroke="black"/>
<path d="M57.4346 39.0576C57.4346 35.4275 58.1851 32.1989 59.6859 29.3717C61.2217 26.5097 63.3856 24.2932 66.178 22.7225C68.9704 21.1169 72.1814 20.3141 75.8115 20.3141C80.4189 20.3141 84.2932 21.5532 87.4346 24.0314C90.5759 26.4746 92.6003 29.8081 93.5079 34.0314H82.4607C81.7976 32.6353 80.8725 31.5707 79.6859 30.8377C78.534 30.1047 77.1903 29.7382 75.6545 29.7382C73.2809 29.7382 71.3788 30.5934 69.9476 32.3037C68.5516 33.9791 67.8534 36.2304 67.8534 39.0576C67.8534 41.9196 68.5516 44.206 69.9476 45.9162C71.3788 47.5916 73.2809 48.4293 75.6545 48.4293C77.1903 48.4293 78.534 48.0628 79.6859 47.3298C80.8725 46.5969 81.7976 45.5322 82.4607 44.1361H93.5079C92.6003 48.3594 90.5759 51.7102 87.4346 54.1885C84.2932 56.6317 80.4189 57.8534 75.8115 57.8534C72.1814 57.8534 68.9704 57.0681 66.178 55.4974C63.3856 53.8919 61.2217 51.6754 59.6859 48.8482C58.1851 45.9861 57.4346 42.7225 57.4346 39.0576ZM116.064 57.9581C112.608 57.9581 109.432 57.1552 106.535 55.5497C103.638 53.9092 101.334 51.6578 99.6238 48.7958C97.9484 45.8987 97.1107 42.6353 97.1107 39.0052C97.1107 35.3751 97.9484 32.1291 99.6238 29.267C101.334 26.3699 103.638 24.1187 106.535 22.5131C109.432 20.9075 112.608 20.1047 116.064 20.1047C119.554 20.1047 122.73 20.9075 125.592 22.5131C128.489 24.1187 130.776 26.3699 132.451 29.267C134.126 32.1291 134.964 35.3751 134.964 39.0052C134.964 42.6353 134.126 45.8987 132.451 48.7958C130.776 51.6578 128.489 53.9092 125.592 55.5497C122.695 57.1552 119.519 57.9581 116.064 57.9581ZM116.064 48.4293C118.681 48.4293 120.741 47.5741 122.242 45.8639C123.777 44.1537 124.545 41.8673 124.545 39.0052C124.545 36.0733 123.777 33.7696 122.242 32.0942C120.741 30.384 118.681 29.5288 116.064 29.5288C113.411 29.5288 111.334 30.384 109.833 32.0942C108.332 33.7696 107.582 36.0733 107.582 39.0052C107.582 41.9023 108.332 44.206 109.833 45.9162C111.334 47.5916 113.411 48.4293 116.064 48.4293ZM158.268 57.5916L150.938 43.9791H149.839V57.5916H139.577V20.6806H155.755C158.722 20.6806 161.235 21.2042 163.294 22.2513C165.354 23.2635 166.907 24.6771 167.954 26.4921C169.001 28.2722 169.525 30.2793 169.525 32.5131C169.525 35.0262 168.827 37.2427 167.43 39.1623C166.069 41.0471 164.062 42.3908 161.409 43.1937L169.734 57.5916H158.268ZM149.839 36.9633H154.917C156.314 36.9633 157.361 36.6317 158.059 35.9686C158.757 35.3055 159.106 34.3455 159.106 33.089C159.106 31.9023 158.739 30.9772 158.006 30.3141C157.308 29.616 156.279 29.267 154.917 29.267H149.839V36.9633ZM184.453 28.9005V34.9215H196.233V42.7225H184.453V49.3717H197.804V57.5916H174.191V20.6806H197.804V28.9005H184.453Z" fill="black"/>
</g>
<defs>
<clipPath id="clip0_3_2">
<rect width="200" height="78.534" fill="white"/>
</clipPath>
</defs>
</svg>
