<svg width="33" height="34" viewBox="0 0 33 34" fill="none" xmlns="http://www.w3.org/2000/svg">
<path d="M19.2592 20.7317L23.5785 8.55892L23.9712 8.46075H24.3639L24.6584 8.55892L32.2173 30.0576L32.1191 30.9411L31.6283 31.7265L30.7448 32.5118H23.5785C23.0288 32.5118 22.3678 31.6611 22.106 31.2356L19.2592 22.8914L19.161 21.8115L19.2592 20.7317Z" fill="black"/>
<path d="M1 30.3521L10.3259 3.65052L11.4058 2.17801L12.3874 1.49084L13.9581 1H19.9463L20.339 1.39267L21.0262 2.37435V3.65052L11.2094 31.3338L10.4241 32.1191L9.44241 32.6099H2.57068L1.49084 31.8246L1 30.3521Z" fill="black"/>
<path d="M19.2592 20.7317L23.5785 8.55892L23.9712 8.46075H24.3639L24.6584 8.55892L32.2173 30.0576L32.1191 30.9411L31.6283 31.7265L30.7448 32.5118H23.5785C23.0288 32.5118 22.3678 31.6611 22.106 31.2356L19.2592 22.8914L19.161 21.8115L19.2592 20.7317Z" stroke="black"/>
<path d="M1 30.3521L10.3259 3.65052L11.4058 2.17801L12.3874 1.49084L13.9581 1H19.9463L20.339 1.39267L21.0262 2.37435V3.65052L11.2094 31.3338L10.4241 32.1191L9.44241 32.6099H2.57068L1.49084 31.8246L1 30.3521Z" stroke="black"/>
<path d="M19.2592 20.7317L23.5785 8.55892L23.9712 8.46075H24.3639L24.6584 8.55892L32.2173 30.0576L32.1191 30.9411L31.6283 31.7265L30.7448 32.5118H23.5785C23.0288 32.5118 22.3678 31.6611 22.106 31.2356L19.2592 22.8914L19.161 21.8115L19.2592 20.7317Z" stroke="black"/>
<path d="M1 30.3521L10.3259 3.65052L11.4058 2.17801L12.3874 1.49084L13.9581 1H19.9463L20.339 1.39267L21.0262 2.37435V3.65052L11.2094 31.3338L10.4241 32.1191L9.44241 32.6099H2.57068L1.49084 31.8246L1 30.3521Z" stroke="black"/>
</svg>
